<svg width="23" height="23" viewBox="0 0 23 23" fill="none" xmlns="http://www.w3.org/2000/svg">
<path d="M17.2044 9.31145L14.4274 10.6999L10.7249 7.92299L9.79924 13.014L13.039 15.7909L13.5018 19.9563M17.2044 7.92299V19.9563M9.79924 15.7909L7.94796 19.9563M8.41078 7.92299C7.02232 8.84863 6.09668 11.1627 6.09668 11.1627L7.94796 12.0884M11.6505 6.07171C12.1415 6.07171 12.6124 5.87666 12.9596 5.52948C13.3068 5.18229 13.5018 4.71141 13.5018 4.22042C13.5018 3.72943 13.3068 3.25855 12.9596 2.91137C12.6124 2.56419 12.1415 2.36914 11.6505 2.36914C11.1595 2.36914 10.6887 2.56419 10.3415 2.91137C9.99429 3.25855 9.79924 3.72943 9.79924 4.22042C9.79924 4.71141 9.99429 5.18229 10.3415 5.52948C10.6887 5.87666 11.1595 6.07171 11.6505 6.07171Z" stroke="#09CA67" stroke-width="1.58681" stroke-linecap="round" stroke-linejoin="round"/>
</svg>
