<svg width="184" height="51" viewBox="0 0 184 51" fill="none" xmlns="http://www.w3.org/2000/svg">
<path d="M60.748 3.91455C61.7874 3.91455 63.1497 4.17188 64.835 4.68652C65.0368 4.74707 65.1982 4.77734 65.3193 4.77734C65.4202 4.77734 65.723 4.68652 66.2275 4.50488C66.389 4.44434 66.5605 4.41406 66.7422 4.41406C67.4183 4.41406 68.1297 4.94889 68.8765 6.01855C69.6333 7.08822 70.0117 8.10742 70.0117 9.07617C70.0117 9.64128 69.8402 10.1206 69.4971 10.5142C69.1641 10.8976 68.7554 11.0894 68.271 11.0894C67.8674 11.0894 67.5394 11.0086 67.2871 10.8472C67.0348 10.6857 66.4798 10.2064 65.6221 9.40918C64.4111 8.27897 63.2204 7.71387 62.0498 7.71387C61.4847 7.71387 61.0306 7.8501 60.6875 8.12256C60.3545 8.39502 60.188 8.75326 60.188 9.19727C60.188 10.0752 60.96 10.7362 62.5039 11.1802C64.5928 11.7957 65.9299 12.2448 66.5151 12.5273C69.0884 13.7786 70.375 15.6203 70.375 18.0522C70.375 20.2017 69.4971 21.9575 67.7412 23.3198C65.945 24.7124 63.5988 25.4087 60.7026 25.4087C59.411 25.4087 58.0487 25.2573 56.6157 24.9546C55.1828 24.6418 54.1484 24.2785 53.5127 23.8647C53.0283 23.5418 52.5894 22.8405 52.1958 21.7607C51.8123 20.6709 51.6206 19.6113 51.6206 18.582C51.6206 18.0876 51.7215 17.7142 51.9233 17.4619C52.1756 17.139 52.4935 16.9775 52.877 16.9775C53.2604 16.9775 53.6287 17.1743 53.9819 17.5679C54.1938 17.7899 54.6934 18.5013 55.4805 19.7021C55.8538 20.2673 56.4442 20.7365 57.2515 21.1099C58.0688 21.4832 58.9115 21.6699 59.7793 21.6699C60.526 21.6699 61.1315 21.5337 61.5957 21.2612C62.0599 20.9787 62.292 20.6204 62.292 20.1865C62.292 19.7829 62.1104 19.4347 61.7471 19.1421C61.3838 18.8494 60.7935 18.577 59.9761 18.3247C58.533 17.8706 57.4331 17.4569 56.6763 17.0835C55.9194 16.7 55.2131 16.2207 54.5571 15.6455C52.9627 14.2327 52.1655 12.6283 52.1655 10.832C52.1655 9.94401 52.3724 9.08122 52.7861 8.24365C53.1999 7.396 53.7852 6.66439 54.542 6.04883C56.2373 4.62598 58.306 3.91455 60.748 3.91455ZM75.6729 18.2642C76.6315 18.2642 77.464 18.5972 78.1704 19.2632C78.8869 19.9393 79.2451 20.8122 79.2451 21.8818C79.2451 22.8809 78.8869 23.7235 78.1704 24.4097C77.464 25.0757 76.6315 25.4087 75.6729 25.4087C74.7142 25.4087 73.8817 25.0757 73.1753 24.4097C72.4588 23.7235 72.1006 22.8657 72.1006 21.8364C72.1006 20.7869 72.4588 19.9292 73.1753 19.2632C73.8817 18.6073 74.7142 18.2743 75.6729 18.2642ZM92.5352 3.91455C95.1286 3.91455 97.394 4.65625 99.3315 6.13965C100.643 7.15885 101.708 8.48079 102.525 10.1055C103.323 11.7201 103.721 13.3346 103.721 14.9492C103.721 17.3307 102.934 19.46 101.36 21.3369C100.028 22.9313 98.2871 24.0767 96.1377 24.7729C94.8158 25.1968 93.4888 25.4087 92.1567 25.4087C90.411 25.4087 88.7409 25.0454 87.1465 24.3188C85.2191 23.4409 83.7104 22.1139 82.6206 20.3379C81.561 18.6224 81.0312 16.7303 81.0312 14.6616C81.0312 12.2599 81.7124 10.1408 83.0747 8.3042C84.2856 6.66943 85.9154 5.46859 87.9639 4.70166C89.3363 4.17692 90.86 3.91455 92.5352 3.91455ZM91.0972 8.25879C90.2495 8.25879 89.5785 8.63721 89.084 9.39404C88.7005 9.95915 88.5088 10.6302 88.5088 11.4072C88.5088 12.5475 88.7409 13.8695 89.2051 15.373C89.6693 16.8665 90.2546 18.1935 90.9609 19.354C91.2738 19.8485 91.6572 20.242 92.1113 20.5347C92.5755 20.8273 93.0448 20.9736 93.519 20.9736C94.286 20.9736 94.9015 20.686 95.3657 20.1108C95.84 19.5356 96.0771 18.7788 96.0771 17.8403C96.0771 16.6193 95.8804 15.3024 95.4868 13.8896C95.0933 12.4769 94.5837 11.271 93.958 10.272C93.5745 9.65641 93.1305 9.17204 92.626 8.81885C92.1214 8.46566 91.6118 8.27897 91.0972 8.25879ZM109.095 18.2642C110.053 18.2642 110.886 18.5972 111.592 19.2632C112.309 19.9393 112.667 20.8122 112.667 21.8818C112.667 22.8809 112.309 23.7235 111.592 24.4097C110.886 25.0757 110.053 25.4087 109.095 25.4087C108.136 25.4087 107.304 25.0757 106.597 24.4097C105.881 23.7235 105.522 22.8657 105.522 21.8364C105.522 20.7869 105.881 19.9292 106.597 19.2632C107.304 18.6073 108.136 18.2743 109.095 18.2642ZM123.475 3.91455C124.514 3.91455 125.876 4.17188 127.562 4.68652C127.763 4.74707 127.925 4.77734 128.046 4.77734C128.147 4.77734 128.45 4.68652 128.954 4.50488C129.116 4.44434 129.287 4.41406 129.469 4.41406C130.145 4.41406 130.856 4.94889 131.603 6.01855C132.36 7.08822 132.738 8.10742 132.738 9.07617C132.738 9.64128 132.567 10.1206 132.224 10.5142C131.891 10.8976 131.482 11.0894 130.998 11.0894C130.594 11.0894 130.266 11.0086 130.014 10.8472C129.761 10.6857 129.206 10.2064 128.349 9.40918C127.138 8.27897 125.947 7.71387 124.776 7.71387C124.211 7.71387 123.757 7.8501 123.414 8.12256C123.081 8.39502 122.915 8.75326 122.915 9.19727C122.915 10.0752 123.687 10.7362 125.23 11.1802C127.319 11.7957 128.656 12.2448 129.242 12.5273C131.815 13.7786 133.102 15.6203 133.102 18.0522C133.102 20.2017 132.224 21.9575 130.468 23.3198C128.672 24.7124 126.325 25.4087 123.429 25.4087C122.138 25.4087 120.775 25.2573 119.342 24.9546C117.909 24.6418 116.875 24.2785 116.239 23.8647C115.755 23.5418 115.316 22.8405 114.922 21.7607C114.539 20.6709 114.347 19.6113 114.347 18.582C114.347 18.0876 114.448 17.7142 114.65 17.4619C114.902 17.139 115.22 16.9775 115.604 16.9775C115.987 16.9775 116.355 17.1743 116.708 17.5679C116.92 17.7899 117.42 18.5013 118.207 19.7021C118.58 20.2673 119.171 20.7365 119.978 21.1099C120.795 21.4832 121.638 21.6699 122.506 21.6699C123.253 21.6699 123.858 21.5337 124.322 21.2612C124.786 20.9787 125.019 20.6204 125.019 20.1865C125.019 19.7829 124.837 19.4347 124.474 19.1421C124.11 18.8494 123.52 18.577 122.703 18.3247C121.26 17.8706 120.16 17.4569 119.403 17.0835C118.646 16.7 117.94 16.2207 117.284 15.6455C115.689 14.2327 114.892 12.6283 114.892 10.832C114.892 9.94401 115.099 9.08122 115.513 8.24365C115.926 7.396 116.512 6.66439 117.269 6.04883C118.964 4.62598 121.033 3.91455 123.475 3.91455ZM62.7007 29.4565C62.0044 29.4565 61.5755 29.6331 61.4141 29.9863C61.293 30.2487 61.1769 30.7633 61.0659 31.5303C60.965 32.2972 60.9146 32.9935 60.9146 33.6191C60.9146 33.9925 61.0356 34.2498 61.2778 34.3911C61.52 34.5324 61.9741 34.603 62.6401 34.603C63.0841 34.603 63.4121 34.5223 63.624 34.3608C63.8359 34.1994 63.9823 33.9269 64.063 33.5435C64.2951 32.4435 64.7694 31.8936 65.4858 31.8936C66.717 31.8936 67.3325 33.3669 67.3325 36.3135C67.3325 38.1803 67.0651 39.5527 66.5303 40.4307C66.2074 40.9655 65.7633 41.2329 65.1982 41.2329C64.6029 41.2329 64.2598 40.8343 64.1689 40.0371C64.1185 39.5225 64.0529 39.1592 63.9722 38.9473C63.9015 38.7354 63.7603 38.5335 63.5483 38.3418C63.2153 38.029 62.731 37.8726 62.0952 37.8726C61.6411 37.8726 61.3333 37.9533 61.1719 38.1147C61.0104 38.2762 60.9398 38.584 60.96 39.0381C60.96 39.1188 60.9549 39.5881 60.9448 40.4458C60.9448 42.1916 61.1265 43.2562 61.4897 43.6396C61.6108 43.791 61.7319 43.8919 61.853 43.9424C61.9842 43.9827 62.3172 44.0433 62.8521 44.124C63.1144 44.1644 63.3364 44.3006 63.5181 44.5327C63.6997 44.7648 63.7905 45.0322 63.7905 45.335C63.7905 46.112 63.3364 46.6115 62.4282 46.8335C61.1164 47.1463 59.2747 47.3027 56.9033 47.3027C54.8245 47.3027 53.3916 47.1816 52.6045 46.9395C52.2513 46.8285 51.9637 46.6266 51.7417 46.334C51.5197 46.0413 51.4087 45.7184 51.4087 45.3652C51.4087 44.9212 51.5701 44.563 51.8931 44.2905C51.9738 44.23 52.2513 44.1038 52.7256 43.9121C53.2907 43.6901 53.6287 43.1755 53.7397 42.3682C53.9214 41.127 54.0122 38.2964 54.0122 33.8765C54.0122 31.9692 53.9466 30.7331 53.8154 30.168C53.6842 29.6029 53.3664 29.2093 52.8618 28.9873C52.3573 28.7653 52.0243 28.5736 51.8628 28.4121C51.7114 28.2406 51.6357 27.9984 51.6357 27.6855C51.6357 27.2415 51.8527 26.8732 52.2866 26.5806C52.7205 26.2778 53.2554 26.1265 53.8911 26.1265C54.2948 26.1265 54.8851 26.1567 55.6621 26.2173C57.307 26.3485 59.2747 26.4141 61.5654 26.4141C65.2285 26.4141 67.6958 26.3132 68.9673 26.1113C69.1388 26.0911 69.27 26.0811 69.3608 26.0811C69.714 26.0811 70.0521 26.2829 70.375 26.6865C71.263 27.8167 71.707 29.068 71.707 30.4404C71.707 31.0661 71.5607 31.5656 71.2681 31.939C70.9754 32.3123 70.592 32.499 70.1177 32.499C69.7645 32.499 69.4971 32.4284 69.3154 32.2871C69.1338 32.1458 68.6696 31.6514 67.9229 30.8037C67.4688 30.279 66.9188 29.9359 66.2729 29.7744C65.6372 29.613 64.4465 29.507 62.7007 29.4565ZM79.1392 31.9087C80.895 31.9087 82.3835 32.3527 83.6045 33.2407C84.2503 33.715 84.6994 34.2599 84.9517 34.8755C85.214 35.481 85.3452 36.3185 85.3452 37.3882L85.3149 39.6436C85.3149 41.2077 85.4259 42.2218 85.6479 42.686C85.759 42.908 85.8649 43.0493 85.9658 43.1099C86.0667 43.1704 86.2786 43.2259 86.6016 43.2764C86.9245 43.3268 87.0859 43.5387 87.0859 43.9121C87.0859 44.3965 86.8892 44.901 86.4956 45.4258C86.1121 45.9505 85.6126 46.3895 84.9971 46.7427C84.2402 47.1867 83.4481 47.4087 82.6206 47.4087C81.561 47.4087 80.7235 47.0454 80.1079 46.3188C79.896 46.0565 79.6992 45.9253 79.5176 45.9253C79.3158 45.9253 79.0483 46.0514 78.7153 46.3037C77.7062 47.0404 76.5609 47.4087 75.2793 47.4087C73.9574 47.4087 72.8877 47.1261 72.0703 46.561C71.5355 46.1877 71.1117 45.7033 70.7988 45.1079C70.486 44.5024 70.3296 43.8717 70.3296 43.2158C70.3296 42.1663 70.7534 41.238 71.6011 40.4307C72.923 39.1592 74.9009 38.5184 77.5347 38.5083C78.12 38.5083 78.4883 38.4528 78.6396 38.3418C78.791 38.2207 78.8667 37.9482 78.8667 37.5244C78.8667 36.4548 78.7557 35.6828 78.5337 35.2085C78.3117 34.7241 77.9484 34.4819 77.4438 34.4819C77.1411 34.4819 76.8687 34.5728 76.6265 34.7544C76.3944 34.936 76.1017 35.269 75.7485 35.7534C74.8504 37.035 73.9119 37.6758 72.9331 37.6758C72.4386 37.6758 72.035 37.5295 71.7222 37.2368C71.4093 36.9442 71.2529 36.5607 71.2529 36.0864C71.2529 35.6021 71.4447 35.1177 71.8281 34.6333C72.2217 34.1489 72.7515 33.7251 73.4175 33.3618C75.244 32.3931 77.1512 31.9087 79.1392 31.9087ZM78.125 40.6729C77.681 40.6729 77.2925 40.8545 76.9595 41.2178C76.6366 41.5811 76.4751 42.015 76.4751 42.5195C76.4751 43.0039 76.5911 43.3975 76.8232 43.7002C77.0553 43.9928 77.3631 44.1392 77.7466 44.1392C78.5539 44.1392 78.9575 43.458 78.9575 42.0957C78.9575 41.5407 78.897 41.1673 78.7759 40.9756C78.6649 40.7839 78.4479 40.6829 78.125 40.6729ZM96.3799 32.7866V40.9907C96.3799 42.7466 96.9601 43.6245 98.1206 43.6245C98.4132 43.6245 98.7008 43.5438 98.9834 43.3823C99.266 43.2108 99.4627 43.0039 99.5737 42.7617C99.7957 42.2773 99.9067 41.1976 99.9067 39.5225C99.9067 37.8675 99.8512 36.7373 99.7402 36.1318C99.6999 35.8796 99.6292 35.6979 99.5283 35.5869C99.4274 35.4658 99.2357 35.3296 98.9531 35.1782C98.3779 34.8755 98.0903 34.492 98.0903 34.0278C98.0903 33.4022 98.5848 32.9683 99.5737 32.7261C101.451 32.2619 103.302 32.0298 105.129 32.0298C106.148 32.0298 106.658 32.5697 106.658 33.6494C106.658 33.7604 106.653 33.9875 106.643 34.3306C106.622 34.8149 106.607 35.4053 106.597 36.1016V42.7769C106.597 43.12 106.89 43.4328 107.475 43.7153C107.97 43.9575 108.217 44.3107 108.217 44.7749C108.217 45.6831 107.142 46.3844 104.993 46.8789C103.731 47.1715 102.51 47.3179 101.33 47.3179C100.845 47.3179 100.512 47.2624 100.331 47.1514C100.159 47.0404 100.058 46.8234 100.028 46.5005C99.9774 45.8748 99.7856 45.562 99.4526 45.562C99.3315 45.562 99.2205 45.5923 99.1196 45.6528C99.0187 45.7033 98.7109 45.9051 98.1963 46.2583C97.1771 46.9546 96.0822 47.3027 94.9116 47.3027C92.9741 47.3027 91.6068 46.7427 90.8096 45.6226C90.1335 44.6841 89.7954 43.1048 89.7954 40.8848C89.7954 40.0573 89.8005 39.3509 89.8105 38.7656C89.8105 38.4225 89.8105 38.1904 89.8105 38.0693C89.8105 37.2015 89.7298 36.5658 89.5684 36.1621C89.417 35.7484 89.1344 35.4255 88.7207 35.1934C88.3271 34.9915 88.0749 34.8301 87.9639 34.709C87.863 34.5879 87.8125 34.4214 87.8125 34.2095C87.8125 33.4425 88.3927 32.9329 89.5532 32.6807C91.5311 32.2467 93.509 32.0298 95.4868 32.0298C96.0822 32.0298 96.3799 32.2821 96.3799 32.7866ZM127.456 37.5093L127.667 42.8374C127.688 43.241 127.748 43.5387 127.849 43.7305C127.96 43.9222 128.273 44.2905 128.788 44.8354C128.939 44.9969 129.015 45.224 129.015 45.5166C129.015 46.1826 128.616 46.6468 127.819 46.9092C127.022 47.1715 125.599 47.3027 123.55 47.3027C122.158 47.3027 121.174 47.1816 120.599 46.9395C120.003 46.6872 119.706 46.2785 119.706 45.7134C119.706 45.5116 119.736 45.3652 119.796 45.2744C119.857 45.1735 120.059 44.9364 120.402 44.563C120.806 44.1392 121.007 42.7264 121.007 40.3247C121.007 38.9321 120.846 37.9028 120.523 37.2368C120.261 36.702 119.776 36.4346 119.07 36.4346C118.394 36.4346 117.93 36.6515 117.677 37.0854C117.425 37.5194 117.299 38.3065 117.299 39.4468V42.4438C117.299 43.0392 117.334 43.4479 117.405 43.6699C117.486 43.8919 117.738 44.3208 118.162 44.9565C118.273 45.1382 118.328 45.3451 118.328 45.5771C118.328 46.1725 117.914 46.6115 117.087 46.894C116.259 47.1766 114.968 47.3179 113.212 47.3179C110.407 47.3179 109.004 46.7376 109.004 45.5771C109.004 45.335 109.044 45.1533 109.125 45.0322C109.216 44.901 109.423 44.7194 109.746 44.4873C110.008 44.2956 110.174 44.0786 110.245 43.8364C110.316 43.5841 110.381 42.9736 110.442 42.0049C110.513 40.8545 110.548 39.6486 110.548 38.3872C110.548 37.6909 110.492 37.2368 110.381 37.0249C110.28 36.8029 109.978 36.5355 109.473 36.2227C109.039 35.9502 108.822 35.6172 108.822 35.2236C108.822 34.82 108.999 34.492 109.352 34.2397C109.705 33.9774 110.432 33.6494 111.532 33.2559C112.5 32.9128 113.434 32.6252 114.332 32.3931C115.23 32.1509 115.846 32.0298 116.179 32.0298C116.481 32.0298 116.734 32.1408 116.936 32.3628C117.147 32.5848 117.253 32.8472 117.253 33.1499C117.253 33.1802 117.248 33.3063 117.238 33.5283C117.228 33.609 117.223 33.6797 117.223 33.7402C117.223 34.2246 117.425 34.4668 117.829 34.4668C118.071 34.4668 118.328 34.2751 118.601 33.8916C119.468 32.6403 120.73 32.0146 122.385 32.0146C123.656 32.0146 124.746 32.3477 125.654 33.0137C126.29 33.488 126.734 34.048 126.986 34.6938C127.239 35.3296 127.395 36.2681 127.456 37.5093ZM138.536 31.9087C140.292 31.9087 141.78 32.3527 143.001 33.2407C143.647 33.715 144.096 34.2599 144.348 34.8755C144.611 35.481 144.742 36.3185 144.742 37.3882L144.711 39.6436C144.711 41.2077 144.822 42.2218 145.044 42.686C145.155 42.908 145.261 43.0493 145.362 43.1099C145.463 43.1704 145.675 43.2259 145.998 43.2764C146.321 43.3268 146.482 43.5387 146.482 43.9121C146.482 44.3965 146.286 44.901 145.892 45.4258C145.509 45.9505 145.009 46.3895 144.394 46.7427C143.637 47.1867 142.845 47.4087 142.017 47.4087C140.958 47.4087 140.12 47.0454 139.504 46.3188C139.292 46.0565 139.096 45.9253 138.914 45.9253C138.712 45.9253 138.445 46.0514 138.112 46.3037C137.103 47.0404 135.957 47.4087 134.676 47.4087C133.354 47.4087 132.284 47.1261 131.467 46.561C130.932 46.1877 130.508 45.7033 130.195 45.1079C129.882 44.5024 129.726 43.8717 129.726 43.2158C129.726 42.1663 130.15 41.238 130.998 40.4307C132.319 39.1592 134.297 38.5184 136.931 38.5083C137.516 38.5083 137.885 38.4528 138.036 38.3418C138.188 38.2207 138.263 37.9482 138.263 37.5244C138.263 36.4548 138.152 35.6828 137.93 35.2085C137.708 34.7241 137.345 34.4819 136.84 34.4819C136.538 34.4819 136.265 34.5728 136.023 34.7544C135.791 34.936 135.498 35.269 135.145 35.7534C134.247 37.035 133.308 37.6758 132.33 37.6758C131.835 37.6758 131.431 37.5295 131.119 37.2368C130.806 36.9442 130.649 36.5607 130.649 36.0864C130.649 35.6021 130.841 35.1177 131.225 34.6333C131.618 34.1489 132.148 33.7251 132.814 33.3618C134.64 32.3931 136.548 31.9087 138.536 31.9087ZM137.521 40.6729C137.077 40.6729 136.689 40.8545 136.356 41.2178C136.033 41.5811 135.872 42.015 135.872 42.5195C135.872 43.0039 135.988 43.3975 136.22 43.7002C136.452 43.9928 136.76 44.1392 137.143 44.1392C137.95 44.1392 138.354 43.458 138.354 42.0957C138.354 41.5407 138.293 41.1673 138.172 40.9756C138.061 40.7839 137.844 40.6829 137.521 40.6729Z" fill="white"/>
<path d="M4.5782 25.2789C4.52179 27.1174 5.88967 29.0109 8.29274 30.4505C9.42786 31.1231 11.4051 31.8113 12.6776 31.9665C14.7995 32.2315 16.833 31.7955 17.9597 30.8349C18.5172 30.3707 18.5471 30.3175 18.849 29.4941C19.1539 28.6625 19.1595 28.6188 19.0338 27.8766C18.6652 25.5985 16.2708 23.3927 13.0401 22.3549C9.96622 21.3745 7.29938 21.5966 5.72187 22.9873C5.24344 23.4072 5.12923 23.576 4.87957 24.1713C4.70425 24.5924 4.58726 25.0258 4.5782 25.2789Z" fill="#000A1F" fill-opacity="0.2"/>
<path d="M8.72398 13.9682C8.68619 14.6137 8.83522 15.2636 9.17471 15.9651C10.4037 18.4946 14.2483 20.6275 17.8134 20.7531C19.6542 20.8143 21.0788 20.4116 22.0996 19.5403C22.663 19.0599 22.69 19.0149 22.9918 18.1914C23.2937 17.3679 23.3052 17.308 23.1799 16.5935C22.9407 15.1046 21.5904 13.3915 19.7387 12.2181C18.7357 11.5848 16.7947 10.8549 15.5521 10.6467C12.2324 10.0799 9.63592 11.0238 8.91479 13.0765C8.81712 13.3429 8.73338 13.7426 8.72398 13.9682Z" fill="#000A1F" fill-opacity="0.2"/>
<path d="M10.5792 38.6888C10.699 39.9325 11.4318 40.9887 12.8299 41.8859C15.2407 43.4474 19.3738 43.9369 21.7248 42.9488C24.6025 41.7234 24.5811 38.8123 21.6822 36.8978C20.4752 36.1073 18.3111 35.4147 16.6687 35.298C14.5482 35.1434 12.4884 35.6796 11.4262 36.6639C10.9844 37.0698 10.5298 38.167 10.5792 38.6888Z" fill="#000A1F" fill-opacity="0.2"/>
<path d="M21.9556 7.70908C21.9916 8.3817 22.2075 8.99203 22.7392 9.88298C23.8026 11.6649 25.8977 13.2023 28.3507 13.9917C30.1213 14.5583 31.4655 14.5749 32.671 14.0277C33.4687 13.6791 33.9125 13.1824 34.1682 12.342C34.3448 11.7748 34.3638 11.5802 34.2609 10.9472C34.1186 10.1075 33.5542 9.04882 32.8216 8.24906C32.3 7.67319 31.1248 6.73866 30.3042 6.23631C29.4403 5.70896 27.3335 4.94578 26.4782 4.852C24.9635 4.67222 23.5988 4.96867 22.8325 5.63108C22.3176 6.06506 21.9255 7.02032 21.9556 7.70908Z" fill="#000A1F" fill-opacity="0.2"/>
<path d="M23.8455 25.9965C23.5894 27.2947 23.6803 28.6743 24.1035 29.9468C24.3422 30.6662 29.1172 40.0548 29.6194 40.7976C30.0657 41.4649 30.9172 42.2258 31.7467 42.704C34.2325 44.1464 37.6805 43.9635 39.6463 42.2846C41.0213 41.1036 41.5468 39.5561 41.7082 36.0893C41.8294 33.5603 42.0691 32.4209 42.829 30.7763C43.3057 29.733 43.6269 29.2279 45.0413 27.2829C46.2813 25.5852 46.6232 25.0237 46.9188 24.1888C48.1368 20.7521 44.8091 16.6381 40.5869 16.3633C39.5543 16.2961 38.9706 16.3752 37.9465 16.7416C36.3098 17.323 27.8836 20.892 27.2912 21.2518C25.5714 22.2882 24.1962 24.1835 23.8455 25.9965Z" fill="#000A1F" fill-opacity="0.2"/>
</svg>
